<?xml version="1.0" encoding="utf-8"?>
<!-- Generator: Adobe Illustrator 25.0.1, SVG Export Plug-In . SVG Version: 6.00 Build 0)  -->
<svg version="1.1" xmlns="http://www.w3.org/2000/svg" xmlns:xlink="http://www.w3.org/1999/xlink" x="0px" y="0px"
	 viewBox="0 0 517.2 517.2" style="enable-background:new 0 0 517.2 517.2;" xml:space="preserve">
<style type="text/css">
	.st0{display:none;}
	.st1{display:inline;fill:#292623;}
	.st2{fill:#C9DAE5;}
	.st3{display:none;fill:#9FD8F4;}
	.st4{fill:#212121;}
	.st5{fill:none;stroke:#CD1150;stroke-width:10;stroke-miterlimit:10;}
	.st6{fill:#CD1150;}
	.st7{fill:#3B3A3A;}
	.st8{fill:#343434;}
	.st9{fill:#3D3E3E;}
	.st10{fill:#555454;}
	.st11{fill:#333333;}
</style>
<g id="Background" class="st0">
	<rect id="color" x="-66.4" y="-66.4" class="st1" width="650" height="650"/>
</g>
<g id="Grid_App_Icon">
	<path id="back" class="st2" d="M392.4,514.6H124.8c-67.2,0-122.2-55-122.2-122.2V124.8c0-67.2,55-122.2,122.2-122.2h267.6
		c67.2,0,122.2,55,122.2,122.2v267.6C514.6,459.6,459.6,514.6,392.4,514.6z"/>
	<path class="st3" d="M516.2,391.6V259.3h0.4v-1.5h-0.4V125.6c0-33.7-13.5-64.4-35.2-86.9v-2.4h35.2v-1.5H482l32.8-33l-1-1l-32.8,33
		V1.5h-1.5v33.3H477c-22.3-21.2-52.3-34.2-85.2-34.2H125C92,0.6,62,13.6,39.7,34.8h-2.5V1.5h-1.5v32.3L3,0.8l-1,1l32.8,33H2.7v1.5
		h33.1v2.4C14,61.3,0.6,91.9,0.6,125.6v265.9c0,33.7,13.5,64.4,35.2,86.9v2.4H2.7v1.5h32.1L2,515.3l1,1l32.8-33v32.3h1.5v-33.3h2.5
		C62,503.5,92,516.6,125,516.6h266.8c32.9,0,62.9-13.1,85.2-34.2h2.5v33.3h1.5v-32.3l32.8,33l1-1l-32.8-33h34.6v-1.5H481v-2.4
		C502.7,455.9,516.2,425.2,516.2,391.6z M514.7,391.6c0,32.8-12.9,62.6-33.7,84.8V351h33.2v-1.5H481v-90.3h33.7V391.6z M349.9,349.6
		l-1-1c1.7-1.7,3.3-3.4,4.8-5.2v6.2H349.9z M353.7,351v2.4l-2.4-2.4H353.7z M163.8,349.6v-5.3c1.3,1.4,2.6,2.9,4,4.2l-1,1H163.8z
		 M165.4,351l-1.5,1.6V351H165.4z M166.8,167.6l1,1c-1.4,1.4-2.7,2.8-4,4.2v-5.3H166.8z M163.8,166.1v-1.6l1.5,1.6H163.8z
		 M353.7,167.6v6.2c-1.6-1.8-3.2-3.5-4.8-5.2l1-1H353.7z M351.4,166.1l2.4-2.4v2.4H351.4z M353.7,257.9h-3.4
		c-0.2-25-10.2-47.6-26.4-64.1l24-24.1c2,2.1,4,4.2,5.9,6.4V257.9z M355.2,177.7c18,21.8,28.9,49.7,29,80.1h-29V177.7z M322.9,194.8
		c15.9,16.3,25.8,38.5,26,63.1h-88.7L322.9,194.8z M259.1,256.8v-89.2c24.4,0.2,46.6,10.1,62.7,26.1L259.1,256.8z M257.7,256.8
		l-62.8-63.1c16.2-16,38.3-25.9,62.8-26.1V256.8z M256.6,257.9h-88.7c0.2-24.6,10.1-46.8,26-63.1L256.6,257.9z M256.6,259.3
		l-62.7,63.1c-15.9-16.3-25.8-38.5-26-63.1H256.6z M257.7,260.4v89.2c-24.4-0.2-46.6-10.1-62.7-26.1L257.7,260.4z M259.1,260.4
		l62.7,63.1c-16.2,16-38.3,25.9-62.7,26.1V260.4z M260.1,259.3h88.7c-0.2,24.6-10.1,46.8-26,63.1L260.1,259.3z M346.9,168.6
		l-24,24.1c-12.9-12.8-29.6-21.8-48.3-25.1h71.2C346.2,167.9,346.5,168.3,346.9,168.6z M259.1,166.1v-34.1
		c32.9,0.2,62.9,13.1,85.2,34.1H259.1z M257.7,166.1h-85.2c22.3-21,52.3-33.9,85.2-34.1V166.1z M242.2,167.6
		c-18.6,3.3-35.3,12.3-48.3,25.1l-24-24.1c0.3-0.3,0.7-0.7,1-1H242.2z M168.9,169.6l24,24.1c-16.2,16.5-26.2,39.1-26.4,64.1h-2.6
		v-82.8C165.5,173.2,167.1,171.4,168.9,169.6z M162.4,257.9h-29.9c0.2-30.9,11.4-59.2,29.9-81.1V257.9z M162.4,259.3v81.1
		c-18.5-21.9-29.7-50.2-29.9-81.1H162.4z M163.8,259.3h2.6c0.2,25,10.2,47.6,26.4,64.1l-24,24.1c-1.7-1.8-3.4-3.6-5-5.4V259.3z
		 M169.9,348.6l24-24.1c12.9,12.8,29.6,21.8,48.3,25.1h-71.2C170.6,349.2,170.2,348.9,169.9,348.6z M257.7,351v34.1
		c-32.9-0.2-62.9-13.1-85.2-34.1H257.7z M259.1,351h85.2c-22.3,21-52.3,33.9-85.2,34.1V351z M274.6,349.6
		c18.6-3.3,35.3-12.3,48.3-25.1l24,24.1c-0.3,0.3-0.7,0.7-1,1H274.6z M347.9,347.5l-24-24.1c16.2-16.5,26.2-39.1,26.4-64.1h3.4v81.8
		C351.9,343.4,349.9,345.5,347.9,347.5z M355.2,259.3h29c-0.2,30.5-11,58.4-29,80.1V259.3z M385.7,257.9
		c-0.2-31.4-11.6-60.2-30.5-82.4v-7.9h76.9c14,27,22,57.7,22.1,90.3H385.7z M355.2,166.1v-3.9l42.2-42.4
		c13.4,13.6,24.9,29.2,34,46.2H355.2z M355.2,160.2V87.4c15.1,8.6,28.9,19.2,41.1,31.4L355.2,160.2z M353.7,161.7l-4.4,4.5h-2.9
		c-22.7-21.9-53.4-35.3-87.3-35.5V61.7c34.4,0.1,66.6,9.1,94.6,24.9V161.7z M257.7,130.6c-33.9,0.2-64.6,13.7-87.3,35.5h-2.9
		l-3.6-3.6V86.1c27.8-15.4,59.8-24.3,93.8-24.4V130.6z M162.4,161.1l-42-42.2c12.5-12.4,26.6-23.2,42-31.9V161.1z M162.4,163.1v3
		h-77c9-17.1,20.5-32.6,34-46.2L162.4,163.1z M162.4,167.6v6.9c-19.4,22.3-31.1,51.5-31.3,83.4H62.5c0.1-32.6,8.1-63.2,22.1-90.3
		H162.4z M131.1,259.3c0.2,31.9,12,61,31.3,83.4v6.9H84.7c-14-27-22-57.7-22.1-90.3H131.1z M162.4,351v3l-43,43.2
		c-13.4-13.6-24.9-29.2-34-46.3H162.4z M162.4,356.1v74.1c-15.4-8.7-29.5-19.5-42-31.9L162.4,356.1z M163.8,354.7l3.6-3.6h2.9
		c22.7,21.9,53.4,35.3,87.3,35.5v68.9c-34-0.1-66-9-93.8-24.4V354.7z M259.1,386.6c33.9-0.2,64.6-13.7,87.3-35.5h2.9l4.4,4.5v75.1
		c-28,15.7-60.3,24.8-94.6,24.9V386.6z M355.2,357l41.1,41.4c-12.2,12.2-26.1,22.8-41.1,31.4V357z M355.2,354.9V351h76.1
		c-9,17.1-20.5,32.6-34,46.3L355.2,354.9z M355.2,349.6v-7.9c18.9-22.2,30.3-50.9,30.5-82.4h68.5c-0.1,32.6-8.1,63.2-22.1,90.3
		H355.2z M455.7,259.3h23.8v90.3h-45.8C447.7,322.5,455.6,291.8,455.7,259.3z M455.7,257.9c-0.1-32.5-8-63.2-21.9-90.3h45.8v90.3
		H455.7z M433,166.1c-9.2-17.5-20.8-33.4-34.6-47.3l80.1-80.6c0,0,0,0,0.1,0.1c0.3,0.3,0.6,0.6,0.9,1v126.8H433z M477.5,37.3
		l-80.1,80.5c-12.5-12.5-26.7-23.3-42.2-32.1V36.3l121.2,0C476.8,36.6,477.1,36.9,477.5,37.3z M353.7,84.9
		c-28.1-15.6-60.3-24.5-94.6-24.7v-24h94.6V84.9z M259.1,34.8V2.1h94.6v32.8H259.1z M257.7,34.8h-93.8V2.1h93.8V34.8z M257.7,36.3
		v24c-34,0.1-65.9,8.9-93.8,24.2V36.3H257.7z M162.4,85.3c-15.8,8.9-30.3,19.8-43,32.6L39.3,37.3c0.3-0.3,0.7-0.7,1-1l122.1,0V85.3z
		 M38.2,38.4C38.2,38.3,38.2,38.3,38.2,38.4l80.2,80.5c-13.7,13.9-25.4,29.8-34.6,47.3H37.2V39.3C37.5,39,37.8,38.7,38.2,38.4z
		 M83,167.6c-13.9,27.1-21.8,57.7-21.9,90.3H37.2v-90.3H83z M61.1,259.3c0.1,32.5,8,63.2,21.9,90.3H37.2v-90.3H61.1z M83.8,351
		c9.2,17.5,20.8,33.4,34.6,47.3l-80.1,80.6c0,0,0,0-0.1-0.1c-0.3-0.3-0.6-0.6-0.9-1V351H83.8z M39.3,479.9l80.1-80.5
		c12.7,12.7,27.2,23.7,43,32.6v49H40.3C40,480.6,39.6,480.2,39.3,479.9z M163.8,432.7c27.9,15.3,59.8,24.1,93.8,24.2v24h-93.8V432.7
		z M257.7,482.4v32.8h-93.8v-32.8H257.7z M259.1,482.4h94.6v32.8h-94.6V482.4z M259.1,480.9v-24c34.3-0.1,66.6-9.1,94.6-24.7v48.6
		H259.1z M355.2,431.4c15.5-8.8,29.7-19.6,42.2-32.1l80.1,80.5c-0.3,0.3-0.7,0.7-1,1H355.2V431.4z M478.6,478.8
		C478.6,478.8,478.6,478.9,478.6,478.8l-80.2-80.5c13.7-13.9,25.4-29.8,34.6-47.3h46.5v126.8C479.2,478.2,478.9,478.5,478.6,478.8z
		 M514.7,125.6v132.2H481v-90.3h33.2v-1.5H481V40.8C501.8,63,514.7,92.9,514.7,125.6z M474.9,34.8l-119.7,0V2.1h36.6
		C423.8,2.1,453,14.5,474.9,34.8z M125,2.1h37.4v32.8l-120.6,0C63.8,14.5,93,2.1,125,2.1z M2,391.6V125.6C2,92.9,14.9,63,35.8,40.8
		v125.3H2.6v1.5h33.2v90.3H2.5v1.5h33.3v90.3H2.6v1.5h33.2v125.3C14.9,454.2,2,424.3,2,391.6z M41.8,482.4h120.6v32.8H125
		C93,515.1,63.8,502.7,41.8,482.4z M391.8,515.1h-36.6v-32.8h119.7C453,502.7,423.8,515.1,391.8,515.1z"/>
</g>
<g id="Capa_3">
	<g>
		<path class="st4" d="M163.3,482.4h-0.8c-2.3,0-4.2-3.9-4.2-8.7V45c0-4.8,1.9-8.7,4.2-8.7h0.8c2.3,0,4.2,3.9,4.2,8.7v428.7
			C167.5,478.4,165.6,482.4,163.3,482.4z"/>
	</g>
	<g>
		<path class="st4" d="M257,482.4h-0.8c-2.3,0-4.2-3.9-4.2-8.7V45c0-4.8,1.9-8.7,4.2-8.7h0.8c2.3,0,4.2,3.9,4.2,8.7v428.7
			C261.2,478.4,259.3,482.4,257,482.4z"/>
	</g>
	<g>
		<path class="st4" d="M354.7,482.4h-0.8c-2.3,0-4.2-3.9-4.2-8.7V45c0-4.8,1.9-8.7,4.2-8.7h0.8c2.3,0,4.2,3.9,4.2,8.7v428.7
			C358.9,478.4,357,482.4,354.7,482.4z"/>
	</g>
	<g>
		<path class="st4" d="M480.7,258.9v0.8c0,2.3-3.9,4.2-8.7,4.2H43.3c-4.8,0-8.7-1.9-8.7-4.2v-0.8c0-2.3,3.9-4.2,8.7-4.2H472
			C476.8,254.7,480.7,256.6,480.7,258.9z"/>
	</g>
	<g>
		<path class="st4" d="M480.7,351.4v0.8c0,2.3-3.9,4.2-8.7,4.2H43.3c-4.8,0-8.7-1.9-8.7-4.2v-0.8c0-2.3,3.9-4.2,8.7-4.2H472
			C476.8,347.2,480.7,349.1,480.7,351.4z"/>
	</g>
	<g>
		<path class="st4" d="M480.7,167.2v0.8c0,2.3-3.9,4.2-8.7,4.2H43.3c-4.8,0-8.7-1.9-8.7-4.2v-0.8c0-2.3,3.9-4.2,8.7-4.2H472
			C476.8,163,480.7,164.9,480.7,167.2z"/>
	</g>
	<circle class="st5" cx="97.8" cy="423.8" r="49.6"/>
	<path class="st6" d="M422.8,106.5l33.8-33.8c0.8-0.8,0.2-2.8-1.5-4.5l-0.6-0.6c-1.6-1.6-3.6-2.3-4.5-1.5l-33.8,33.8l-33.8-33.8
		c-0.8-0.8-2.8-0.2-4.5,1.5l-0.6,0.6c-1.6,1.6-2.3,3.6-1.5,4.5l33.8,33.8l-33.8,33.8c-0.8,0.8-0.2,2.8,1.5,4.5l0.6,0.6
		c1.6,1.6,3.6,2.3,4.5,1.5l33.8-33.8l33.8,33.8c0.8,0.8,2.8,0.2,4.5-1.5l0.6-0.6c1.6-1.6,2.3-3.6,1.5-4.5L422.8,106.5z"/>
	<g>
		<path class="st6" d="M256.9,79.2c-1.4,0.2-2.7,0.4-3.9,1c-1.5,1.1-3.2,2.1-4.3,3.8c-0.4,0.9-0.6,2.2,0.2,3.2c0.4,0.6,1,0.7,1.6,1
			c0.1,0.4,0.2,0.8,0.4,1.3c0-0.3,0-0.6,0.1-0.9c0.2-0.7,1.3-0.1,1.9,0l0.2,0c1.3-0.3,2.6,0,3.9,0c1.2,0.1,2.5,0,3.7,0.3l0.1,0
			c0.8-0.2,1.6-0.1,2.4,0l0.1,0c0.4-0.2,0.9-0.2,1.3,0.2l0,0c0.8-0.2,1.6,0,2.4,0.1c1.3,0.2,2.7,0.2,4,0.6l0.1,0c0,0,0.1,0,0.1,0
			l0.1,0c1.5-0.1,3.1,0.1,4.7,0.6l0.2,0c0.9-0.1,1.9,0.1,2.8,0.2c8.9,1.3,17.8,3.2,26.7,5.4c4.5,1.3,9,2.3,13.5,3.7
			c3.8,1.2,7.5,2.2,11.3,3.7l0.1,0c0.3,0.2,0.8,0.2,0.9,0.7c-0.2-0.1-0.6-0.2-0.7-0.3c-0.4,0.2-0.8,0.4-1.1,0.6l0-0.4
			c-2.3,0.5-4.6,0.6-6.9,1c-6.5,1.3-12.9,2.7-19.3,4.1c-4.9,1-9.6,2.7-14.4,4c-2.3,0.9-4.8,1.3-7.1,2.3c-5.4,1.5-10.5,3.7-15.6,5.8
			c-3.7,1.5-7.4,3.1-11.1,4.7c-3.2,1.5-6.4,3.2-9.6,4.8c-4.5,2.4-9,4.7-13.5,7.2c-2,1.5-4.3,2.5-6.4,4c-4.1,2.4-8.1,5.1-12.1,7.7
			c-2.9,2.2-5.9,4.3-8.7,6.6c-4.7,3.7-9.5,7.2-13.9,11.5c-1.8,1.8-3.8,3.3-5.5,5.1c-2.8,2.8-5.8,5.4-8.6,8.2c-0.9,1-1.9,1.9-2.7,2.9
			c-3.9,4.5-7.9,9-11.7,13.7c-3.1,3.6-5.9,7.5-8.8,11.4c-1,1.2-1.8,2.5-2.7,3.8c-0.4,0.7-0.9,1.3-1.3,2c-0.8,1.1-1.5,2.3-2.3,3.4
			c-0.5,0.7-1,1.4-1.4,2.1c-2.5,3.7-4.7,7.7-7,11.6c-2.1,3.6-4.2,7.1-6.1,10.9c-2,3.8-3.9,7.8-5.7,11.8c-0.2,0.5-0.5,1-0.7,1.5
			c-0.7,1.4-1.3,2.9-2,4.3c-1.3,2.8-2.5,5.7-3.7,8.7c-0.2,0.4-0.3,0.8-0.5,1.2c-1.1,2.8-2.2,5.6-3.3,8.5c-1.8,4.7-3.6,9.4-5.2,14.3
			c-0.2,0.5-0.4,1.1-0.5,1.6c-0.8,2.6-1.7,5.1-2.5,7.7c-3.6,11.3-6.7,22.9-10.2,34.2c-0.5,1.8-1,3.5-1.5,5.3
			c-0.3,2.3,0.6,4.8,1.7,7.1c2.3,2.6,5.2,4.5,8.1,5c1.8,0.1,3.7-0.3,4.7-1.9c0.7-1.9,1.2-4.1,1.8-6.1c0.6-1.6,0.8-3.4,1.7-4.8
			c1.7-5.5,3-11.3,4.7-16.8c1.4-4.6,2.9-9.1,4.3-13.7c1.2-3.6,2.2-7.2,3.5-10.7l-0.5-0.2c0.1,0,0.4-0.1,0.6-0.1
			c0.4-1.5,0.9-3,1.5-4.4l-0.4-0.3c0.1,0,0.4-0.1,0.6-0.1c0.5-2.3,1.4-4.3,2.1-6.4c2.2-5.8,4.4-11.4,6.7-17.1
			c3-7.3,6.5-14.3,10-21.3c1.6-3.2,3.2-6.5,5-9.5c3.6-6,7.2-11.9,11-17.7c2.2-3.4,4.4-6.7,6.9-9.8c5.1-6.5,10.1-13.1,15.7-19
			c5.5-5.9,10.9-11.9,17-16.8c0-0.1,0-0.2,0-0.3c4.3-3.5,8.6-7.1,12.8-10.6c2.4-2.1,5-3.7,7.5-5.5c4.1-3,8.3-5.7,12.5-8.6
			c7-4.2,14.2-8,21.4-11.7c7.7-3.7,15.7-6.8,23.7-10.1c5.5-1.7,10.9-3.6,16.5-5.1c3.7-1.4,7.6-2.2,11.6-3c6.1-1.5,12.3-2.6,18.4-3.7
			c3.1-0.5,6.2-0.7,9.3-1.2c2.2,0.1,4.3-0.6,6.5-0.5c1.4-0.1,2.8-0.2,4.1-0.5c0.4-0.1,0.8-0.1,1.2-0.2c-0.3,0.6-0.7,1.1-1.1,1.5
			c-4.7,4.7-9.3,9.6-13.9,14.6c-2.1,2.3-4,4.8-6,7.3c-2,2.5-4,5.1-5.9,7.6c-1.5,1.9-3.1,3.8-4.4,5.9c-1.8,2.8-3.6,5.7-5.4,8.6
			c-1.2,1.7-2.2,3.6-3.4,5.4c-2.1,3.9-4.1,7.9-6.1,11.8c-0.8,2.2-1.9,4.1-2.9,6.2l0.1,0.2c-0.6,0.6-0.7,1.6-1,2.4
			c-0.1,0.1-0.2,0.4-0.3,0.6c-0.1,0.3-0.2,0.5-0.4,0.8c-1.5,3-2.9,6.1-3.5,9.8c-0.7,2.4,0.4,5.4,1.8,7.8c1,1.7,2.2,3.2,3.6,4.6
			c2.1,2,4.4,3.6,6.8,4.1c0.2,0,0.5-0.1,0.6-0.1c0.6,0.2,1.2,0,1.8-0.1l-0.1-0.3c0.6-0.3,1-0.8,1.3-1.5l-0.1-0.2
			c0.3-0.5,0.5-1.1,0.8-1.7c0.2-0.6,0.5-1.3,0.8-1.9l-0.1-0.2c0.2-0.5,0.4-1.1,0.6-1.6c0.2-0.6,0.3-1.1,0.5-1.7
			c0-0.1,0.1-0.3,0.1-0.4c0.4-1.3,0.8-2.5,1.2-3.7c0.2-0.6,0.4-1.2,0.6-1.9c0.3-0.8,0.6-1.6,0.9-2.4c0.4-1.3,1-2.6,1.4-3.8
			c0.9-2,1.9-4,2.8-6.1c0.8-1.8,1.7-3.5,2.4-5.3c0.1-0.3,0.3-0.7,0.4-1c0.5-1.3,1.2-2.4,1.7-3.7c0.1-0.1,0.2-0.4,0.3-0.6
			c0.2-0.5,0.5-1,0.8-1.5c0.1-0.1,0.3-0.4,0.3-0.6c0.2-0.2,0.3-0.5,0.5-0.7l0-0.2c1-1.3,1.8-2.8,2.6-4.2c0.8-1.2,1.6-2.6,2.3-3.8
			c0.7-1,1.3-2,1.9-3.1c1.3-2.2,2.8-4.2,4.2-6.3c1-1.4,1.9-2.7,2.9-4.1c1.3-2,2.8-3.7,4.2-5.6c1.1-1.3,2.2-2.5,3.3-3.9
			c1.3-1.8,2.9-3.3,4.3-5c2.5-2.7,4.8-5.6,7.5-8.1c5.5-5.3,11.1-10.5,16.7-15.8c-1-2.2-2.4-4.1-3.5-6.2c-1.2-1.7-2.8-2.9-4.5-3.6
			c-3.8-1.6-7.7-3-11.6-4.6c-5.1-2.1-10.3-3.9-15.4-5.8c-6.1-2-12.2-4.1-18.3-5.7c-2.1-0.5-4.3-1.4-6.4-1.8
			c-4.6-1.1-9.2-2.3-13.8-3.2c-2.8-0.4-5.6-1.4-8.4-1.6c-4.9-0.7-9.8-1.1-14.7-2.2c-4.2-0.2-8.4-0.2-12.6-0.6
			C264,79.2,260.5,79.2,256.9,79.2z"/>
	</g>
	<g>
		<path class="st7" d="M255.2,87.1c-0.6-0.1-1.6-0.7-1.8,0C254,87.1,254.6,87.2,255.2,87.1z"/>
	</g>
	<g>
		<path class="st8" d="M259.3,87c-1.3,0-2.6-0.2-3.8,0c2.5,0.3,5,0.3,7.4,0.2C261.6,87,260.5,87.1,259.3,87z"/>
	</g>
	<g>
		<path class="st8" d="M265.3,87.3c-0.8-0.1-1.6-0.2-2.3,0C263.7,87.5,264.5,87.6,265.3,87.3z"/>
	</g>
	<g>
		<path class="st9" d="M266.6,87.5c-0.4-0.4-0.9-0.4-1.3-0.2C265.7,87.9,266.2,87.7,266.6,87.5z"/>
	</g>
	<g>
		<path class="st8" d="M268.9,87.5c-0.8-0.1-1.6-0.2-2.3,0c2.1,0.4,4.2,0.6,6.2,0.6C271.5,87.7,270.2,87.7,268.9,87.5z"/>
	</g>
	<g>
		<path class="st10" d="M273.1,88.1c0,0-0.1,0-0.1,0L273.1,88.1L273.1,88.1z"/>
	</g>
	<g>
		<path class="st11" d="M277.7,88.6c-1.5-0.5-3.1-0.6-4.5-0.5C274.7,88.4,276.3,88.8,277.7,88.6z"/>
	</g>
</g>
</svg>
