<?xml version="1.0" encoding="utf-8"?>
<!-- Generator: Adobe Illustrator 25.0.1, SVG Export Plug-In . SVG Version: 6.00 Build 0)  -->
<svg version="1.1" id="Layer" xmlns="http://www.w3.org/2000/svg" xmlns:xlink="http://www.w3.org/1999/xlink" x="0px" y="0px"
	 viewBox="0 0 512 512" style="enable-background:new 0 0 512 512;" xml:space="preserve">
<style type="text/css">
	.st0{fill:#FFFFFF;}
</style>
<path class="st0" d="M490.7,234.5H65.1L228,79.2c8.5-8.1,8.8-21.6,0.8-30.2c-8.1-8.5-21.6-8.8-30.1-0.8L12.5,225.7
	c-8,8-12.5,18.8-12.5,30.2c0,11.4,4.4,22.2,12.9,30.6l185.7,177.1c4.1,4,9.5,5.9,14.7,5.9c5.6,0,11.2-2.3,15.5-6.7
	c8.1-8.5,7.7-22-0.8-30.2L64.4,277.2h426.3c11.7,0,21.3-9.6,21.3-21.4S502.4,234.5,490.7,234.5L490.7,234.5z"/>
</svg>
