<?xml version="1.0" encoding="utf-8"?>
<!-- Generator: Adobe Illustrator 25.0.1, SVG Export Plug-In . SVG Version: 6.00 Build 0)  -->
<svg version="1.1" id="Layer_1" xmlns="http://www.w3.org/2000/svg" xmlns:xlink="http://www.w3.org/1999/xlink" x="0px" y="0px"
	 viewBox="0 0 520 469" style="enable-background:new 0 0 520 469;" xml:space="preserve">
<style type="text/css">
	.st0{fill:#222222;}
</style>
<g>
	<g>
		<path class="st0" d="M0,338.9V0.5h244.7c30.9,1.6,61.8,6.3,91.7,14.5c35.5,9.7,70.1,24.4,99.8,46.3c22.4,16.4,41.8,37.2,55.8,61.3
			c19.1,32.6,27.4,70.7,28,108.2v8.5c-0.5,23-3.6,46.1-10.6,68.1c-11,35.3-32.2,67.1-60,91.5c-28.5,25.2-63,42.9-98.8,55.1
			c-20.5,7-40.6,11.5-61.9,14.7c-1.9,0.3-3.8,0.4-5.7,0.4h-3.8c-95.8,0-63.7,0-127.7,0 M151.6,131.1c-0.1,68.1,0,136.3-0.1,204.4
			c0,2.8,1.1,3.3,3.5,3.3c21-0.1,42.1-0.2,63.1-0.3c19.3-0.1,38.8,0.6,57.9-3.1c14.3-2.6,28.4-7,41-14.2
			c15.8-8.8,29.2-22.1,37.6-38.2c11.1-21.1,15-46.1,9.7-69.4c-4.7-22.3-17-43.1-35.3-56.9c-19.1-14.8-43.2-21.8-67-24.1
			c-12.6-1.4-25.4-1-38-1.2C199.9,131.3,175.7,131.2,151.6,131.1z"/>
	</g>
</g>
</svg>
